<?xml version="1.0" standalone="no"?>
<!DOCTYPE svg PUBLIC "-//W3C//DTD SVG 20010904//EN"
 "http://www.w3.org/TR/2001/REC-SVG-20010904/DTD/svg10.dtd">
<svg version="1.0" xmlns="http://www.w3.org/2000/svg"
 width="512.000000pt" height="512.000000pt" viewBox="0 0 512.000000 512.000000"
 preserveAspectRatio="xMidYMid meet">
<metadata>
Created by potrace 1.14, written by Peter Selinger 2001-2017
</metadata>
<g transform="translate(0.000000,512.000000) scale(0.100000,-0.100000)"
fill="#000000" stroke="none">
<path d="M2365 4863 c-42 -4 -265 -39 -300 -47 -312 -70 -607 -204 -880 -400
-27 -20 -53 -36 -56 -36 -22 0 -97 235 -122 385 -6 35 -37 71 -71 82 -60 21
-118 -12 -131 -75 -2 -9 -16 -66 -30 -127 -15 -60 -29 -119 -31 -130 -2 -11
-15 -65 -27 -120 -27 -116 -33 -275 -14 -375 l12 -65 -80 -120 c-103 -154
-200 -352 -260 -527 -25 -75 -48 -145 -50 -155 -2 -10 -13 -58 -23 -108 -11
-49 -23 -116 -27 -148 -7 -51 -10 -58 -34 -63 -145 -32 -232 -129 -237 -266
-3 -57 1 -75 26 -125 16 -33 40 -69 52 -80 35 -33 118 -73 149 -73 33 0 35 -3
43 -60 3 -25 8 -56 11 -70 3 -14 8 -38 11 -55 48 -267 182 -590 345 -831 260
-386 646 -696 1074 -864 144 -56 334 -109 450 -125 17 -3 41 -7 54 -10 101
-20 450 -28 581 -12 116 13 145 17 170 22 14 3 34 7 45 9 275 52 578 179 825
345 122 82 129 87 249 192 261 227 479 534 606 850 20 52 44 110 52 129 8 20
15 42 17 50 1 8 10 41 20 73 27 91 63 274 65 327 1 21 6 26 33 28 76 6 174 77
211 153 23 49 31 136 18 186 -27 98 -121 188 -210 200 -49 7 -48 6 -55 64 -7
51 -13 85 -30 169 -56 269 -189 572 -361 820 l-52 75 13 55 c24 104 16 259
-22 425 -19 83 -41 179 -49 215 -28 124 -45 170 -68 185 -49 32 -113 22 -142
-21 -9 -13 -27 -75 -41 -137 -13 -61 -29 -128 -35 -147 -17 -55 -61 -150 -69
-150 -4 0 -27 15 -51 33 -44 34 -151 104 -222 146 -61 37 -248 127 -292 141
-22 7 -45 16 -50 21 -12 9 -232 76 -277 84 -17 3 -34 8 -38 10 -4 2 -53 12
-111 21 -57 9 -115 18 -129 21 -34 5 -405 11 -455 6z"/>
</g>
</svg>
